<svg width="19" height="19" viewBox="0 0 19 19" fill="none" xmlns="http://www.w3.org/2000/svg">
<circle cx="9.5" cy="9.5" r="9.5" fill="white"/>
<path d="M7.10004 6.20004C7.02327 6.20004 6.94643 6.22928 6.88793 6.28793L6.28793 6.88793C6.17063 7.00523 6.17063 7.19515 6.28793 7.31215L8.47582 9.50004L6.28793 11.6879C6.17063 11.8052 6.17063 11.9951 6.28793 12.1121L6.88793 12.7121C7.00523 12.8294 7.19515 12.8294 7.31215 12.7121L9.50004 10.5243L11.6879 12.7121C11.8049 12.8294 11.9951 12.8294 12.1121 12.7121L12.7121 12.1121C12.8294 11.9948 12.8294 11.8049 12.7121 11.6879L10.5243 9.50004L12.7121 7.31215C12.8294 7.19515 12.8294 7.00493 12.7121 6.88793L12.1121 6.28793C11.9948 6.17063 11.8049 6.17063 11.6879 6.28793L9.50004 8.47582L7.31215 6.28793C7.2535 6.22928 7.1768 6.20004 7.10004 6.20004Z" fill="#3C366B"/>
</svg>
