<svg width="39" height="39" viewBox="0 0 39 39" fill="none" xmlns="http://www.w3.org/2000/svg">
<path fill-rule="evenodd" clip-rule="evenodd" d="M0 19.1481C0 11.4992 0 7.67476 1.82267 4.92012C2.63658 3.69003 3.69003 2.63658 4.92012 1.82267C7.67476 0 11.4992 0 19.1481 0C26.797 0 30.6215 0 33.3761 1.82267C34.6062 2.63658 35.6597 3.69003 36.4736 4.92012C38.2962 7.67476 38.2962 11.4992 38.2962 19.1481C38.2962 26.797 38.2962 30.6215 36.4736 33.3761C35.6597 34.6062 34.6062 35.6597 33.3761 36.4736C30.6215 38.2962 26.797 38.2962 19.1481 38.2962C11.4992 38.2962 7.67476 38.2962 4.92012 36.4736C3.69003 35.6597 2.63658 34.6062 1.82267 33.3761C0 30.6215 0 26.797 0 19.1481ZM29.0525 19.148C29.0525 24.6229 24.6142 29.0612 19.1393 29.0612C13.6643 29.0612 9.22604 24.6229 9.22604 19.148C9.22604 13.6731 13.6643 9.23478 19.1393 9.23478C24.6142 9.23478 29.0525 13.6731 29.0525 19.148ZM19.1393 25.7073C22.7619 25.7073 25.6986 22.7706 25.6986 19.148C25.6986 15.5254 22.7619 12.5887 19.1393 12.5887C15.5167 12.5887 12.58 15.5254 12.58 19.148C12.58 22.7706 15.5167 25.7073 19.1393 25.7073ZM29.445 11.0661C30.7314 11.0661 31.7743 10.0232 31.7743 8.73674C31.7743 7.45029 30.7314 6.40743 29.445 6.40743C28.1585 6.40743 27.1156 7.45029 27.1156 8.73674C27.1156 10.0232 28.1585 11.0661 29.445 11.0661Z" fill="white"/>
</svg>
