<svg width="871" height="364" viewBox="0 0 871 364" fill="none" xmlns="http://www.w3.org/2000/svg">
<path d="M236.5 227H274V289H236.5V357H171.5V289H1.04308e-07V227L109.5 6.99998H182L73 227H171.5V149H236.5V227ZM438.793 363.5C409.793 363.5 384.46 356 362.793 341C341.46 325.667 324.96 304.333 313.293 277C301.96 249.667 296.293 218 296.293 182C296.293 146 301.96 114.333 313.293 87C324.96 59.6667 341.46 38.5 362.793 23.5C384.46 8.16664 409.793 0.49997 438.793 0.49997C467.793 0.49997 492.96 8.16664 514.293 23.5C535.626 38.5 551.96 59.6667 563.293 87C574.96 114.333 580.793 146 580.793 182C580.793 218 574.96 249.667 563.293 277C551.96 304.333 535.626 325.667 514.293 341C492.96 356 467.793 363.5 438.793 363.5ZM438.793 298C462.46 298 481.126 288.5 494.793 269.5C508.793 250.167 515.793 221 515.793 182C515.793 143 508.793 114 494.793 95C481.126 75.6667 462.46 66 438.793 66C415.126 66 396.293 75.6667 382.293 95C368.626 114 361.793 143 361.793 182C361.793 221 368.626 250.167 382.293 269.5C396.293 288.5 415.126 298 438.793 298ZM775.086 6.99998V295H870.086V357H607.586V295H709.586V77L655.086 110L621.086 59L709.586 7.49997V6.99998H775.086Z" fill="white" fill-opacity="0.05"/>
</svg>
