<svg width="24" height="24" viewBox="0 0 24 24" fill="none" xmlns="http://www.w3.org/2000/svg">
<path d="M8 13C7 13 5.5 14.5 2 17C1.99996 19.3333 3 19.9999 4 21C5 22 5.79082 21.749 7 22C9.10306 22.4364 12.5 22 12.5 22L17.5 22C17.5 22 19.9364 21.1606 21 20C22.9964 17.8216 22 13.1667 22 12.5C19.5 7.00005 14.6 14.5 11 14.5C9.5 14.5 9 13 8 13Z" fill="#A51D20" stroke="white" stroke-linejoin="round"/>
<path d="M9 22H15C20 22 22 20 22 15V9C22 4 20 2 15 2H9C4 2 2 4 2 9V15C2 20 4 22 9 22Z" stroke="white" stroke-width="1.5" stroke-linecap="round" stroke-linejoin="round"/>
<path d="M9 10C10.1046 10 11 9.10457 11 8C11 6.89543 10.1046 6 9 6C7.89543 6 7 6.89543 7 8C7 9.10457 7.89543 10 9 10Z" fill="#A51D20" stroke="white" stroke-width="1.5" stroke-linecap="round" stroke-linejoin="round"/>
</svg>
