<svg width="60" height="60" viewBox="0 0 60 60" fill="none" xmlns="http://www.w3.org/2000/svg">
<circle cx="30" cy="30" r="30" fill="#A51D20"/>
<path d="M44.2429 39.0429C44.2429 39.5572 44.1286 40.0857 43.8858 40.6C43.6429 41.1143 43.3286 41.6 42.9144 42.0572C42.2144 42.8286 41.4429 43.3857 40.5715 43.7429C39.7144 44.1 38.7858 44.2857 37.7858 44.2857C36.3286 44.2857 34.7715 43.9429 33.1286 43.2429C31.4858 42.5429 29.8429 41.6 28.2144 40.4143C26.5715 39.2143 25.0144 37.8857 23.5286 36.4143C22.0572 34.9286 20.7286 33.3714 19.5429 31.7429C18.3715 30.1143 17.4286 28.4857 16.7429 26.8714C16.0572 25.2429 15.7144 23.6857 15.7144 22.2C15.7144 21.2286 15.8858 20.3 16.2286 19.4429C16.5715 18.5714 17.1144 17.7714 17.8715 17.0572C18.7858 16.1572 19.7858 15.7143 20.8429 15.7143C21.2429 15.7143 21.6429 15.8 22.0001 15.9714C22.3715 16.1429 22.7001 16.4 22.9572 16.7714L26.2715 21.4429C26.5286 21.8 26.7144 22.1286 26.8429 22.4429C26.9715 22.7429 27.0429 23.0429 27.0429 23.3143C27.0429 23.6572 26.9429 24 26.7429 24.3286C26.5572 24.6572 26.2858 25 25.9429 25.3429L24.8572 26.4714C24.7001 26.6286 24.6286 26.8143 24.6286 27.0429C24.6286 27.1572 24.6429 27.2572 24.6715 27.3714C24.7144 27.4857 24.7572 27.5714 24.7858 27.6572C25.0429 28.1286 25.4858 28.7429 26.1144 29.4857C26.7572 30.2286 27.4429 30.9857 28.1858 31.7429C28.9572 32.5 29.7001 33.2 30.4572 33.8429C31.2001 34.4714 31.8144 34.9 32.3001 35.1571C32.3715 35.1857 32.4572 35.2286 32.5572 35.2714C32.6715 35.3143 32.7858 35.3286 32.9144 35.3286C33.1572 35.3286 33.3429 35.2429 33.5001 35.0857L34.5858 34.0143C34.9429 33.6572 35.2858 33.3857 35.6144 33.2143C35.9429 33.0143 36.2715 32.9143 36.6286 32.9143C36.9001 32.9143 37.1858 32.9714 37.5001 33.1C37.8144 33.2286 38.1429 33.4143 38.5001 33.6572L43.2286 37.0143C43.6001 37.2714 43.8572 37.5714 44.0144 37.9286C44.1572 38.2857 44.2429 38.6429 44.2429 39.0429Z" stroke="white" stroke-width="2.5" stroke-miterlimit="10"/>
</svg>
